<mxfile host="app.diagrams.net" modified="2023-04-10T06:49:13.667Z" agent="Mozilla/5.0 (Windows NT 10.0; Win64; x64) AppleWebKit/537.36 (KHTML, like Gecko) Chrome/112.0.0.0 Safari/537.36" etag="lGMWocr3LCEPYS9afQMF" version="21.1.5" type="github">
  <diagram id="prtHgNgQTEPvFCAcTncT" name="Page-1">
    <mxGraphModel dx="880" dy="1621" grid="1" gridSize="10" guides="1" tooltips="1" connect="1" arrows="1" fold="1" page="1" pageScale="1" pageWidth="827" pageHeight="1169" math="0" shadow="0">
      <root>
        <mxCell id="0" />
        <mxCell id="1" parent="0" />
        <mxCell id="UplaBGIvNCpctDgtjGbJ-2" value="" style="html=1;verticalLabelPosition=bottom;align=center;labelBackgroundColor=#ffffff;verticalAlign=top;strokeWidth=2;strokeColor=#0080F0;shadow=0;dashed=0;shape=mxgraph.ios7.icons.monitor;" vertex="1" parent="1">
          <mxGeometry x="17" y="-282" width="120" height="69.5" as="geometry" />
        </mxCell>
        <mxCell id="UplaBGIvNCpctDgtjGbJ-4" value="" style="shape=mxgraph.cisco.computers_and_peripherals.video_camera;html=1;pointerEvents=1;dashed=0;fillColor=#036897;strokeColor=#ffffff;strokeWidth=2;verticalLabelPosition=bottom;verticalAlign=top;align=center;outlineConnect=0;" vertex="1" parent="1">
          <mxGeometry x="218" y="-230" width="67" height="98" as="geometry" />
        </mxCell>
        <mxCell id="UplaBGIvNCpctDgtjGbJ-8" value="" style="html=1;verticalLabelPosition=bottom;verticalAlign=top;outlineConnect=0;shadow=0;dashed=0;shape=mxgraph.rack.hpe_aruba.switches.j9780a_2530_8_poeplus_front;" vertex="1" parent="1">
          <mxGeometry x="195" y="-325" width="102" height="15" as="geometry" />
        </mxCell>
        <mxCell id="UplaBGIvNCpctDgtjGbJ-9" value="" style="shape=mxgraph.pid.apparatus_elements.support_bracket;html=1;pointerEvents=1;align=center;verticalLabelPosition=bottom;verticalAlign=top;dashed=0;" vertex="1" parent="1">
          <mxGeometry x="189" y="-230" width="30" height="20" as="geometry" />
        </mxCell>
        <mxCell id="UplaBGIvNCpctDgtjGbJ-11" value="" style="html=1;verticalLabelPosition=bottom;verticalAlign=top;outlineConnect=0;shadow=0;dashed=0;shape=mxgraph.rack.hpe_aruba.switches.j9780a_2530_8_poeplus_rear;" vertex="1" parent="1">
          <mxGeometry x="320" y="-221" width="60" height="15" as="geometry" />
        </mxCell>
        <mxCell id="UplaBGIvNCpctDgtjGbJ-12" value="" style="image;points=[];aspect=fixed;html=1;align=center;shadow=0;dashed=0;image=img/lib/allied_telesis/wireless/Laptop_Wireless.svg;" vertex="1" parent="1">
          <mxGeometry x="405" y="-347" width="89.75" height="73.86" as="geometry" />
        </mxCell>
        <mxCell id="UplaBGIvNCpctDgtjGbJ-13" value="" style="image;points=[];aspect=fixed;html=1;align=center;shadow=0;dashed=0;image=img/lib/allied_telesis/media_converters/Media_Converter_Standalone.svg;" vertex="1" parent="1">
          <mxGeometry x="440" y="-225" width="45.6" height="37.2" as="geometry" />
        </mxCell>
        <mxCell id="UplaBGIvNCpctDgtjGbJ-14" value="" style="html=1;verticalLabelPosition=bottom;verticalAlign=top;outlineConnect=0;shadow=0;dashed=0;shape=mxgraph.rack.hpe_aruba.gateways_controllers.aruba_7280_mobility_controller_rear;" vertex="1" parent="1">
          <mxGeometry x="560" y="-273" width="142" height="15" as="geometry" />
        </mxCell>
        <mxCell id="UplaBGIvNCpctDgtjGbJ-15" value="" style="html=1;verticalLabelPosition=bottom;verticalAlign=top;outlineConnect=0;shadow=0;dashed=0;shape=mxgraph.rack.hpe_aruba.gateways_controllers.aruba_clearpass_c1000_front;" vertex="1" parent="1">
          <mxGeometry x="562" y="-236" width="142" height="15" as="geometry" />
        </mxCell>
        <mxCell id="UplaBGIvNCpctDgtjGbJ-16" value="" style="sketch=0;pointerEvents=1;shadow=0;dashed=0;html=1;strokeColor=none;fillColor=#505050;labelPosition=center;verticalLabelPosition=bottom;verticalAlign=top;outlineConnect=0;align=center;shape=mxgraph.office.devices.headset;" vertex="1" parent="1">
          <mxGeometry x="570" y="-170" width="36" height="48" as="geometry" />
        </mxCell>
        <mxCell id="UplaBGIvNCpctDgtjGbJ-17" value="" style="sketch=0;pointerEvents=1;shadow=0;dashed=0;html=1;strokeColor=none;fillColor=#505050;labelPosition=center;verticalLabelPosition=bottom;verticalAlign=top;outlineConnect=0;align=center;shape=mxgraph.office.devices.microphone;" vertex="1" parent="1">
          <mxGeometry x="740" y="-362" width="53" height="37" as="geometry" />
        </mxCell>
        <mxCell id="UplaBGIvNCpctDgtjGbJ-18" value="Speaker" style="strokeColor=#dddddd;shadow=1;strokeWidth=1;rounded=1;absoluteArcSize=1;arcSize=2;labelPosition=center;verticalLabelPosition=middle;align=center;verticalAlign=bottom;spacingLeft=0;fontColor=#999999;fontSize=12;whiteSpace=wrap;spacingBottom=2;html=1;" vertex="1" parent="1">
          <mxGeometry x="710" y="-183" width="70" height="85" as="geometry" />
        </mxCell>
        <mxCell id="UplaBGIvNCpctDgtjGbJ-19" value="" style="sketch=0;dashed=0;connectable=0;html=1;fillColor=#757575;strokeColor=none;shape=mxgraph.gcp2.speaker;part=1;" vertex="1" parent="UplaBGIvNCpctDgtjGbJ-18">
          <mxGeometry x="0.5" width="35" height="50" relative="1" as="geometry">
            <mxPoint x="-17.5" y="10" as="offset" />
          </mxGeometry>
        </mxCell>
      </root>
    </mxGraphModel>
  </diagram>
</mxfile>
